<?xml version="1.0"?>
<svg xmlns="http://www.w3.org/2000/svg" id="Capa_1" enable-background="new 0 0 512 512" height="512px" viewBox="0 0 512 512" width="512px"><g><g><path d="m449.649 307.262-18.956-101.095h29.976v-30h-35.601l-5.625-30.002h-117.452v30h31.907l25.911 190.012h-84.69l-28.814-65.109c14.379-7.521 24.22-22.576 24.22-39.896 0-24.814-20.188-45.002-45.002-45.002h-35.173v-160.35h-190.35v190.349h50.173v60.004h51.771c-19.485 19.073-31.598 45.648-31.598 75.003v15h31.509c6.968 34.194 37.273 60.004 73.495 60.004s66.526-25.81 73.495-60.004h114.658c6.968 34.194 37.273 60.004 73.494 60.004 41.357 0 75.004-33.646 75.004-75.004-.001-37.043-27.002-67.88-62.352-73.914zm-419.649-91.093v-130.349h130.349v130.349zm50.173 60.004v-30.004h145.349c8.272 0 15.002 6.73 15.002 15.002s-6.73 15.002-15.002 15.002zm95.176 30h40.408l26.555 60.003h-140.46c6.967-34.196 37.274-60.003 73.497-60.003zm0 120.007c-19.557 0-36.232-12.543-42.424-30.004h84.848c-6.192 17.461-22.867 30.004-42.424 30.004zm219.196-250.015 24.775 132.132c-13.215 3.206-25.068 9.917-34.523 19.096l-20.622-151.227h30.37zm42.451 250.015c-24.815 0-45.003-20.188-45.003-45.004 0-24.815 20.188-45.003 45.003-45.003s45.004 20.188 45.004 45.003c0 24.816-20.188 45.004-45.004 45.004z" data-original="#000000" class="active-path" data-old_color="#000000" fill="#FFFFFF"/></g></g> </svg>
